<?xml version="1.0" encoding="utf-8"?>
<!-- Generator: Adobe Illustrator 21.0.0, SVG Export Plug-In . SVG Version: 6.00 Build 0)  -->
<svg version="1.1" id="Layer_1" xmlns="http://www.w3.org/2000/svg" xmlns:xlink="http://www.w3.org/1999/xlink" x="0px" y="0px"
	 viewBox="0 0 273.4 440.8" style="enable-background:new 0 0 273.4 440.8;" xml:space="preserve">
<style type="text/css">
	.st0{fill:none;stroke:#FFFFFF;stroke-width:0.55;stroke-linejoin:round;stroke-miterlimit:10;}
</style>
<path class="st0" d="M244,268.8l2.6-49l0-17.3c0,0,0,0,0-0.1c0,0,0,0,0,0L226.8,98.9c0,0,0,0,0,0c0-0.1-0.1-0.2-0.1-0.2l-53.1-59.7
	c0,0,0,0,0,0c0,0-0.1-0.1-0.1-0.1L109.7,0.4c0,0,0,0,0,0c-0.1,0-0.2-0.1-0.3-0.1L45.3,0.7l-45,4.4l117.4,341.5
	c19.8,14.8,41.7,31.3,57.5,43.2l-2.5,13.9l-30.2,10.5c-0.1,0-0.2,0.1-0.3,0.3l-8,15.9l13.8,10.1l78.6-0.1c0,0,46.6-70.9,46.6-70.9
	L244,268.8z"/>
</svg>
