<?xml version="1.0" encoding="utf-8"?>
<!-- Generator: Adobe Illustrator 21.0.0, SVG Export Plug-In . SVG Version: 6.00 Build 0)  -->
<svg version="1.1" id="Layer_1" xmlns="http://www.w3.org/2000/svg" xmlns:xlink="http://www.w3.org/1999/xlink" x="0px" y="0px"
	 viewBox="0 0 315.9 441.8" style="enable-background:new 0 0 315.9 441.8;" xml:space="preserve">
<style type="text/css">
	.st0{fill:none;stroke:#FFFFFF;stroke-width:0.55;stroke-linejoin:round;stroke-miterlimit:10;}
</style>
<path class="st0" d="M105.8,11.1L84.8,0.3L0.3,231.1l0,2.2l73.6,72.3l13.3,69l-5.3,10.6L78,404.6c0,0-0.1,0-0.1,0c0,0,0,0,0,0
	L42,407.3c-0.1,0-0.2,0-0.2,0.1l-26.5,15.9c-0.1,0.1-0.2,0.2-0.3,0.4c0,0.2,0,0.3,0.1,0.4l8,10.6c0.1,0.1,0.2,0.2,0.3,0.2l18.6,6.6
	c0.1,0,0.1,0,0.2,0c0,0,0,0,0,0l67.7-2.7c0.2,0,18.6-9.8,18.6-9.8l65.8-137.9l15.8,89.8l-26.1,10.4l-8.2,16.2l13.5,8.7l79.9,0.1
	l10.9-8.1c0,0,0,0,0,0c0,0,0,0,0,0l18.6-15.9l17.2-48.7c0,0,0,0,0,0L198.2,2.1L105.8,11.1z"/>
</svg>
