<?xml version="1.0" encoding="utf-8"?>
<!-- Generator: Adobe Illustrator 21.0.0, SVG Export Plug-In . SVG Version: 6.00 Build 0)  -->
<svg version="1.1" id="Layer_1" xmlns="http://www.w3.org/2000/svg" xmlns:xlink="http://www.w3.org/1999/xlink" x="0px" y="0px"
	 viewBox="0 0 289.3 450.8" style="enable-background:new 0 0 289.3 450.8;" xml:space="preserve">
<style type="text/css">
	.st0{fill:none;stroke:#FFFFFF;stroke-width:0.55;stroke-linejoin:round;stroke-miterlimit:10;}
</style>
<path class="st0" d="M289,26.6L238.3,0.3l-38.5,31.8l-73,10.6L81,51.9c0-0.1-0.1-0.2-0.1-0.3L68.9,38.4c-0.1-0.1-0.3-0.2-0.4-0.2
	c0,0,0,0-0.1,0l-11.9,1.3c-0.2,0-0.3,0.1-0.4,0.3l-5.3,9.3c0,0.1-0.1,0.2-0.1,0.3v26.5c0,0.2-3.4,4-3.4,4L26,113v43.2
	c-0.1,0-25.6,21.4-25.6,21.4c0,0,0,0.1-0.1,0.1c0,0,0,0,0,0c0,0,0,0,0,0c0,0,0,0,0,0c0,0.1-0.1,0.1-0.1,0.2c0,0,0,0,0,0c0,0,0,0,0,0
	c0,0,0,0,0,0c0,0,0,0,0,0c0,0,0,0,0,0v2.7v15.9c0,0.1,0.1,0.3,0.2,0.4L12.4,209l0,0l9.3,9.3c0.1,0.1,0.2,0.1,0.3,0.2l19.9,2.7
	l41.9,5.2l-3.9,24.6l-35.7,50.3c0,0,0,0,0,0l0,0l-31.8,45.1c0,0-9.4,74.5-9.4,74.5c0,0,0,0,0,0c0,0,0,0.1,0,0.1c0,0,0,0.1,0,0.1
	c0,0,0,0,0,0l14.6,29.2c0.1,0.2,0.3,0.3,0.5,0.3c0,0,0,0,0,0c0.2,0,0.4-0.1,0.5-0.3l6.4-15.4l19.4,7.8c0.1,0,0.1,0,0.2,0
	c0.1,0,0.2,0,0.3-0.1c0.1-0.1,0.2-0.2,0.3-0.4l3.9-23.2l7.3,2.4c0.1,0,0.1,0,0.2,0c0.1,0,0.2,0,0.3-0.1c0.1-0.1,0.2-0.3,0.2-0.4
	v-18.5l7.9-22.3l44.9-23.8c0,0,42.7-12.2,42.7-12.2l23.8-42.4l26.4-19.8c0.1-0.1,0.2-0.2,0.2-0.4l1.3-22.1l0.2,0.2l0-2.2L289,26.6z"
	/>
</svg>
